<svg xmlns="http://www.w3.org/2000/svg" xmlns:xlink="http://www.w3.org/1999/xlink" viewBox="0 0 295.802 100.009">
  <defs>
    <linearGradient id="linear-gradient" x1="-8707.079" y1="-1102.784" x2="-8746.636" y2="-939.299" gradientUnits="objectBoundingBox">
      <stop offset="0.08" stop-color="#f44b33"/>
      <stop offset="1" stop-color="#f6b330"/>
    </linearGradient>
    <linearGradient id="linear-gradient-2" x1="-34510.309" y1="-1026.296" x2="-34529.484" y2="-943.626" gradientUnits="objectBoundingBox">
      <stop offset="0" stop-color="#f8b14a"/>
      <stop offset="1" stop-color="#f9c651"/>
    </linearGradient>
    <linearGradient id="linear-gradient-3" x1="-15053.999" y1="-1462.104" x2="-15098.429" y2="-1326.372" gradientUnits="objectBoundingBox">
      <stop offset="0" stop-color="#f78749"/>
      <stop offset="1" stop-color="#fad471"/>
    </linearGradient>
  </defs>
  <g id="fruit_fusionlogo" transform="translate(0.044 0.01)">
    <path id="Path_209" data-name="Path 209" d="M42.039,13.408C40.9,15.273,39.9,16.788,39.3,18.07c-1.338,3.613-2.943,8.1.535,10.256a21.28,21.28,0,0,0,4.548-3.2c1.739-1.69,3.01-4.2,4.147-5.885-2.207-.583-4.883-2.914-6.421-5.885Z" transform="translate(214.924 64.49)" fill="none"/>
    <path id="Path_210" data-name="Path 210" d="M24.579,5.928c-1.137,1.865-2.14,3.38-2.742,4.662-1.338,3.613-2.943,8.1.535,10.256a21.28,21.28,0,0,0,4.548-3.2c1.739-1.69,3.01-4.2,4.147-5.885-2.207-.583-4.883-2.914-6.421-5.885Z" transform="translate(115.6 28.383)" fill="none"/>
    <path id="Path_211" data-name="Path 211" d="M40.986,12.677a6.034,6.034,0,0,0-1.94,2.389c-.6,1.69-.067,2.739.87,4.6.87,1.69,1.4,2.855,3.277,3.38a19.409,19.409,0,0,0,.87-10.605,3.414,3.414,0,0,0-3.077.291Z" transform="translate(220.926 59.044)" fill="none"/>
    <path id="Path_212" data-name="Path 212" d="M23.526,5.187a6.034,6.034,0,0,0-1.94,2.389c-.6,1.69-.067,2.739.87,4.6.87,1.69,1.4,2.855,3.277,3.38A19.409,19.409,0,0,0,26.6,4.954a3.414,3.414,0,0,0-3.077.291Z" transform="translate(121.602 22.889)" fill="none"/>
    <path id="Path_213" data-name="Path 213" d="M29.077,4.858a8.32,8.32,0,0,0-.87-.058,3.708,3.708,0,0,0-1.472.233,20.286,20.286,0,0,0-5.284,3.788c-.334.291-.6.233-.936.466-.4.35-.2.641-.468.932-.2.291-.669.35-.936.641-.535,1.049-.87.816-1.07,1.107s-.334.816-.535,1.165a13.011,13.011,0,0,0-1.07,1.515l-.87,1.4c-.936,1.282-2.073,3.38-1.472,3.846-.535,1.457-.87,3.38,0,4.079a11.153,11.153,0,0,0,5.618-3.555c1.2-1.4,3.01-3.03,3.746-4.662.87-1.806,1.739-3.613,2.742-5.361.87-1.515,2.007-3.846,2.742-5.477Z" transform="translate(77.391 23.218)" fill="none"/>
    <path id="Path_214" data-name="Path 214" d="M39.715,15.615l1.4.291c2.475,0,4.415-.932,5.351-2.68a4.1,4.1,0,0,0-.4-2.8A3.9,3.9,0,0,0,44.6,9.5a24.918,24.918,0,0,0-3.144-.117,40.006,40.006,0,0,0-6.421,1.165c-1.873.408-3.879,1.865-4.415,1.806a.9.9,0,0,0-.535.816c-.535-.117-.936-.233-1,.233a74.149,74.149,0,0,0,10.3,2.039s.334.583.4.117Z" transform="translate(165.678 45.326)" fill="none"/>
    <path id="Path_215" data-name="Path 215" d="M23.651,10.62l-.2.175Q23.55,10.62,23.651,10.62Z" transform="translate(133.651 51.312)" fill="#ed1c24" opacity="0.8"/>
    <path id="Path_216" data-name="Path 216" d="M69.508,26.414c-.334-.7-1.137-1.165-1.2-1.865a1.718,1.718,0,0,0-.936-.408v.408H67.7C67.5,26.064,66.1,27.4,65.093,27.4l-.2.991c-.334-.35-.468-.117-.468-.291a2.609,2.609,0,0,1-1.271,1.515v-.758c-.535,0-.535.408-1.137.991.134-.583.6-.583.134-.583-.669.932-4.682,2.447-7.759,3.088a2.946,2.946,0,0,1,.334-.641c0-.408.6-1.107,1-1.515a8.144,8.144,0,0,1,.936-1.632l.468-.816L59.609,23.5c.468.408.468-.583,1-.583a.684.684,0,0,0-.736-.058l.4-.291,1-1.457c-.468,0,0-.35,0-.35.468.35-.067-.991.4-.466v.466c1.07-.991,1.2-1.865,2.207-2.8l.468-.583c.535,0,.6-.35.6-.816h.535c.468,0,.334-.408.535.583.468.058.2-.408.6-.35.87.641.6.058,1,.233.535.233.936.583,1.271.7l11.036,1.282c-2.007-.408-.936-.583-.067-.408,2.14-1.049,5.685-1.632,5.15-5.536l-.334-.291c-.6-2.564-2.475-2.855-5.351-3.5-1.873-.291-7.157-.291-8.093.233v.35a1.445,1.445,0,0,1-.936-.233c.468.466.2.408.2.408-.134.408,0,0-.6-.117a14.767,14.767,0,0,0-4.415,2.214c-1,.117-1.94,1.282-2.475,1.69-.468-.058-1.672-.35-3.545-.816A65.162,65.162,0,0,0,46.3,11.846a36.933,36.933,0,0,0-11.5,1.165c0,.466-1,.466-1.538.466-1.472.35-5.886,1.981-7.157,3.147a19.257,19.257,0,0,0-2.609,3.2c-.4,1.34-.87,1.865-.736,2.8,0,.466.535.408,0,.466v.466a1.948,1.948,0,0,0,.134,2.156c.2,1.865,3.277,3.9,5.083,4.545a7.314,7.314,0,0,0,3.344.991,2.066,2.066,0,0,0,1.605.641,7.571,7.571,0,0,0,2.943.583l-3.813-1.69c-2.007-.991-4.147-2.214-4.883-4.137-1.137-1.457-.535-4.487-.468-5.3l.334-.816c.334-.583,1.2-.816.87-1.165a10.622,10.622,0,0,0,1.271-1.049c-.2.233-.6.524-.87.175.535-.408,1.2-.7,1.538-.991q.535,0,.535-.35c.468,0,.936-.932,1.806-.932a.311.311,0,0,0-.334.408c.87-.408,1.94-.408,2.073-1.282v.35a13.735,13.735,0,0,1,5.351-1.4,9.176,9.176,0,0,0,2.742-.466,1.412,1.412,0,0,0,1.538.291l.535-.466c0,.466.468.466,1,.466h.535a15.485,15.485,0,0,1,4.013-.291h2.14c2.609.466,5.418.466,7.491.991a19.438,19.438,0,0,1,2.542.466c-3.144,3.147-6.287,8.741-8.361,11.946a2.8,2.8,0,0,1-.535,1.806v.408a.54.54,0,0,0-.535.583H51.85v.408a7.417,7.417,0,0,1-1,2.156,5.353,5.353,0,0,1-2.408-.35.467.467,0,0,1,.4-.408c-.468.058-1,.35-1.338-.058-1.07,0-1.538,0-2.007-.466l-1.605-.641-.87-.35s-.936-.408-.736-.991a2.184,2.184,0,0,1-1.471-.932,5.007,5.007,0,0,0,3.478,3.38c1,.466,1.471.991,2.007.466-.067.466.535.466.6,0,.4.466-.067.466.4.932a6.836,6.836,0,0,1,3.144.35c0,.058-.067.117-.067.233-1.07.35-.6,1.748-1.538,1.748.067,1.4-3.144,6.759-3.144,7.75v.408c0,.932-1,.932-.936,1.4.067.35-.535,0-.535.35a11.28,11.28,0,0,1-1.271,3.613v1.806c.535.466-.067.991-.067.991-.468.408-.4.816-.4,1.34v.466a.759.759,0,0,0,0,.408h.468a80.125,80.125,0,0,0,3.679-7.692v-.408c.535,0,.535-.932.535-.932h.468a1.39,1.39,0,0,0,.468-.991c.6-.408,2.742-5.477,3.211-6.352l.535-.408a4.254,4.254,0,0,0,1.07-2.389,4.015,4.015,0,0,0,.936-1.282c5.685-.932,10.167-2.914,12.173-5.244a9.077,9.077,0,0,1-1.07,4.6,41.692,41.692,0,0,1-2.207,4.429l.334.408a2.329,2.329,0,0,1,.736-1.282,8.617,8.617,0,0,1,2.14-2.506l.2-.932a24.36,24.36,0,0,0,3.813-5.711.951.951,0,0,1-.334-.991ZM67.5,14.643a.824.824,0,0,1,.535-.816c.535.058,2.609-1.4,4.415-1.806a34.42,34.42,0,0,1,6.421-1.165,24.918,24.918,0,0,1,3.144.117,2.846,2.846,0,0,1,1.472.932,4.1,4.1,0,0,1,.4,2.8c-.936,1.748-2.943,2.68-5.351,2.68l-1.4-.291c-.067.408-.4-.117-.4-.117a68.108,68.108,0,0,1-10.3-2.039c.067-.408.468-.35,1-.233Z" transform="translate(128.193 43.909)" fill="#ed1c24" opacity="0.8"/>
    <path id="Path_217" data-name="Path 217" d="M50.47,18.239l1-1.748.334-.583a4.324,4.324,0,0,0,.334-1.806c-.067-.641-2.609-1.34-3.277-1.34a5.128,5.128,0,0,1-.4,1.165c-.134.408-.4.816-.736,1.748a21.1,21.1,0,0,1-1.672,3.438c-.4.641-.736,1.69-1.4,2.739a43.714,43.714,0,0,0-3.144,4.895c-1.873,2.156-3.679,2.156-4.214,3.846-2.007.583-3.478,1.865-5.418,1.865,0-2.039,1.538-5.536,2.742-7.109a3.536,3.536,0,0,1,1.4-2.447c1.2-3.2,3.144-5.244,3.679-8.974.067-1.165-2.609-2.156-4.08-1.865a2.177,2.177,0,0,1,.468,1.049c.2,1.748-.535,3.263-1.605,5.128-1.2,2.1-1.605,3.729-2.809,5.3-.936,2.914-2.809,5.128-2.408,9.382.468,1.515,4.415,2.564,6.354,1.049.6-1.049,2.007-1.049,2.609-1.69l.6-.466c.6-1.049,1-.7,1-1.282.936-1.165,1.538-2.1,2.943-3.613-1.94,3.962-2.007,7.925,0,9.5a7.23,7.23,0,0,0,3.612,1.107c-2.073-.991-1.739-4.254-1.472-6a16.533,16.533,0,0,1,1.137-3.613V26.863c.6,0,0-.7.6-1.107-.067-1.049,1.137-2.8,1.806-3.788.6-.466.535-1.515,1.137-2.214,0-.408.6-1.049.936-1.457Z" transform="translate(166.428 58.027)" fill="#ed1c24" opacity="0.8"/>
    <path id="Path_218" data-name="Path 218" d="M52.393,16.744a2.632,2.632,0,0,0-.535-2.214c-.936-1.34-1.472-1.632-3.344-2.156-.936-.058-.4-.291-2.073-.233a10.651,10.651,0,0,0-2.943.117c-1,.408-2.007.758-1.873,1.4a3.9,3.9,0,0,0-2.007,1.806c-.2.932-.535,2.506-.2,3.03-.2,3.263,2.943,6.643,3.344,9.44.936,2.739.334,5.711-1.4,6.876-2.675,1.69-6.822-.466-8.294-2.739a4.445,4.445,0,0,1-.067-3.9,7.211,7.211,0,0,1,.468-1.049h0a5.663,5.663,0,0,0-.736,6.06c.067,1.107,1.271,1.632,2.207,3.263,1-.583,1.2,0,1.739,0,.6,0,1.94.583,2.274,0,1.2,0,3.01-.583,3.612-.583s.6,0,1.137-.466c.535,0,1.07-1.107,1.672-1.748l.535-.466a3.072,3.072,0,0,0,.6-1.515L46.64,30.5c0-2.855-1.338-5.885-2.274-8.741l-.6-1.457c-.736-1.69-1.07-3.613-.736-4.545l.134-.816c.6-1.107,1.472-1.806,3.545-2.447,2.274.816,4.147,4.953,3.746,6.235l.134.117A3.368,3.368,0,0,0,52.259,16.8Z" transform="translate(183.3 58.358)" fill="#ed1c24" opacity="0.8"/>
    <path id="Path_219" data-name="Path 219" d="M41.6,24.107c.87,0,0-.058-.334-.175-1.538-.35-3.612-1.69-3.277-3.321.268-1.224,2.542-2.1,3.277-3.38.4-1.457-.468-2.1-.334-3.38a2.558,2.558,0,0,1,1-1.806c.535,3.263,5.284,4.6,4.95,8.216a4.677,4.677,0,0,1-3.411,3.555c-.334.175-.936.291-.736.291a14.2,14.2,0,0,0,1.94-.35c3.077-.874,5.217-4.312,3.411-6.993,0,.35-.134,1.632-.669,1.69-.736.058.468-1.4-.268-3.147a1.694,1.694,0,0,0-.4-.641c-.468-.641-.134,0-.2.641a1.174,1.174,0,0,1-.468.816,8.664,8.664,0,0,1-.669-1.107c-1.271-1.865-3.211-2.855-1.605-6.526-1.806.641-2.207.874-2.542,2.622-.268,1.515-1.338,3.9-1.271,4.2.2.641-.8.175-1.07-.175a2.568,2.568,0,0,1,0-2.214c-2.609,1.748-.268,3.5-.134,4.37.268,1.865-3.411,1.573-1.672-1.981a4.324,4.324,0,0,0-1.538,2.039c-1.137,3.555,2.274,6.526,5.953,6.7Z" transform="translate(201.385 41.03)" fill="url(#linear-gradient)"/>
    <path id="Path_220" data-name="Path 220" d="M38.045,16.177a7.737,7.737,0,0,1-.8-.874v-.058c-.067-.175-.2-.408-.268-.641a2.938,2.938,0,0,1,.268-1.69c.4-.816,1.472-1.69,1.806-2.914-.736,1.282-3.01,2.1-3.277,3.38-.334,1.69,1.739,2.972,3.277,3.321a2.277,2.277,0,0,1-.87-.641h0c0,.058.6.641-.134.117Z" transform="translate(203.534 48.319)" fill="url(#linear-gradient-2)"/>
    <path id="Path_221" data-name="Path 221" d="M43.657,17.326c.4-3.671-4.415-5.011-4.95-8.216a2.822,2.822,0,0,0-1,1.806c-.134,1.282.736,1.923.334,3.38-.334,1.224-1.4,2.1-1.806,2.914a2.482,2.482,0,0,0-.268,1.69,1.322,1.322,0,0,0,.268.641V19.6a2.68,2.68,0,0,0,.8.874c.8.524.2,0,.134-.117h0a2,2,0,0,1-.134-2.331c0,1.69,1.873,1.923,2.207.932.268-1.049-1.472-2.739.268-3.671-.736,2.214,2.073,2.914,1.472,4.72a1.814,1.814,0,0,1-.8.874,4.5,4.5,0,0,0,3.411-3.555Zm-5.351.758c-.535.117-.87-.932-.2-1.573v.758c0,.233.6.7.134.816Z" transform="translate(204.544 44.023)" fill="url(#linear-gradient-3)"/>
    <path id="Path_222" data-name="Path 222" d="M36.557,10.38c-.669.641-.334,1.69.2,1.573.468-.058-.067-.583-.134-.816V10.38Z" transform="translate(206.093 50.153)" fill="#fff"/>
    <path id="Path_223" data-name="Path 223" d="M42.267,32.275a11.72,11.72,0,0,1-4.95,1.515,16.557,16.557,0,0,1-.2-2.564c.6-.583,1.137-.583,1.07-1.049-.067-.583.6-1.049,1.07-2.1,0-.583.6-1.632.535-2.1.535-.583.334-1.049.87-1.515l1.4-2.68c.535-2.1,1.806-3.729,2.475-5.244a2.825,2.825,0,0,0,0-2.68c-.535-.466-1.4-1.457-2.007-1.457-.535-.466-.6-.058-1.137-.058-.334,1.049-.334,1.515-.736,3.147a41.1,41.1,0,0,1-1.739,4.487,27.668,27.668,0,0,1-2.475,5.477c.067,1.049-1.07,2.1-1,3.729l-.334,1.282c-.2,1.34.468,2.389,1.605,3.438a7.261,7.261,0,0,0,2.943,1.748c1.739-.117,4.147.058,5.819-2.039,0-1.049,1.538-2.331,2.007-3.38l.6-.583v-.466c.2-.466,1.2-1.806,2.207-3.263A13.578,13.578,0,0,1,51.029,24c-2.609,2.972-6.421,7.051-8.561,8.333Z" transform="translate(199.78 58.85)" fill="#ed1c24" opacity="0.8"/>
    <path id="Path_224" data-name="Path 224" d="M63.182,21.01c-2.341,1.748-6.689,4.079-8.963,4.137A6.191,6.191,0,0,0,55.356,23.4V22.35c-.134-.583.535-1.107.468-1.632a3.606,3.606,0,0,0,.468-2.214c-.134-.583.535-1.69.4-2.8-.067-.466-.736-1.632-.87-2.156C53.35,12.094,49,11.57,48.333,12.094c-2.073.408-2.274.932-3.211,2.1-.87.583-.936,1.34-1.4,2.039a4.048,4.048,0,0,0-.334,2.331,19.346,19.346,0,0,0-2.742,3.263L39.3,23.865c-.268.466-.535.991-.8,1.515.8-.874,1.472-1.69,2.007-2.331A27.134,27.134,0,0,1,37.832,27.3a13.176,13.176,0,0,0-.6,3.5,5.793,5.793,0,0,0,1.07,3.613c.669,1.107,2.007,1.107,2.675,2.156h3.211a11.967,11.967,0,0,0,6.22-3.263l.134-.7c1.2-1.107,1.538-2.564,2.007-4.2.6,0,.535-1.107,1.137-1.69,2.609-.466,4.214-.816,5.953-1.981,0-.641,1.739-1.107,2.675-2.389a1.377,1.377,0,0,1,.4-.524,4.347,4.347,0,0,1,.268-.524.758.758,0,0,1,.134-.35ZM47.2,32.2a18.419,18.419,0,0,1-4.548,3.2c-3.478-2.156-1.873-6.643-.535-10.256a49.469,49.469,0,0,1,2.742-4.662c1.538,2.914,4.214,5.3,6.421,5.885-1.137,1.69-2.408,4.2-4.147,5.885Zm4.883-7.633c-1.94-.466-2.475-1.69-3.277-3.38-.936-1.865-1.472-2.914-.87-4.6a6.034,6.034,0,0,1,1.94-2.389,3.414,3.414,0,0,1,3.077-.291,18.191,18.191,0,0,1-.87,10.605Z" transform="translate(212.041 57.471)" fill="#ed1c24" opacity="0.8"/>
    <path id="Path_225" data-name="Path 225" d="M38.056,16.131c-.268.583-.468,1.282-.736,1.923A22.824,22.824,0,0,0,40,13.8c-.535.583-1.2,1.4-2.007,2.331Z" transform="translate(212.553 66.662)" fill="#ed1c24" opacity="0.8"/>
    <path id="Path_226" data-name="Path 226" d="M38.056,16.131c-.268.583-.468,1.282-.736,1.923A22.824,22.824,0,0,0,40,13.8c-.535.583-1.2,1.4-2.007,2.331Z" transform="translate(212.553 66.662)" fill="#ed1c24" opacity="0.8"/>
    <path id="Path_227" data-name="Path 227" d="M56.515,39.435c-1.94-1.049-1.4-4.662-.535-6.876a17.047,17.047,0,0,1,2.408-4.953,4.3,4.3,0,0,1,.468-.758c.334-.466.6-1.865.87-2.214.2-.408.4.291.468,0a19.539,19.539,0,0,0,1.07-1.981l.936-1.806c.134-.466-.134-.408,0-.816.134-.291.6-.641.736-.932a22.351,22.351,0,0,0,.87-2.156c.6-1.515,0-2.156.067-3.438a3.242,3.242,0,0,0-2.943-1.34l-1.338.117a6.562,6.562,0,0,0-2.809,1.69c-3.01,2.1-7.291,8.449-11.036,13.053a46.5,46.5,0,0,0,3.277-6.876c.2-.641.87-1.165.87-1.69.6-.583.6-2.1,1.137-3.147-.134-1.69-.334-1.865-1.07-2.214a4.854,4.854,0,0,0-2.007-.758,13.673,13.673,0,0,0-2.408-.117c2.073.641,1.4,2.68.87,5.3a11.114,11.114,0,0,0-1,2.156,8.567,8.567,0,0,0,1.137-.991,13.442,13.442,0,0,1-1.538,1.865c-.468,1.049-1.07,2.331-1.538,3.671-.6,1.632-2.14,6.06-2.809,7.342,0,1.107-.669,2.039,0,3.38,0-.583,1.472-.641,2.007-.758.2-.991,1.338-1.4,1.672-2.214,1.672-3.438,4.013-5.711,5.418-8.158l1.2-1.165c.6-1.515,1.472-1.515,2.14-3.147,1.137,0,1.137-1.049,1.739-1.515.6,0,1.137-.991,1.806-1.457A6.066,6.066,0,0,1,59.592,14.2a1.27,1.27,0,0,1,.535,1.4,29.732,29.732,0,0,1-1.472,3.846,52.455,52.455,0,0,1-3.545,6.41C53.84,28.305,52.3,30.752,52.3,34.016c0,1.632,2.14,5.536,3.344,5.536,1.605.641,2.408,1.165,3.746,1.049a15.791,15.791,0,0,0,2.742-.7c.6-.641,2.809-1.865,3.746-3.147-1.873,1.049-7.692,2.855-9.5,2.739Z" transform="translate(229.878 58.742)" fill="#ed1c24" opacity="0.8"/>
    <path id="Path_228" data-name="Path 228" d="M41.451,14.281a2.087,2.087,0,0,1-.134.35,3.457,3.457,0,0,1-.268.524,10.622,10.622,0,0,0,1.538-1.865,8.566,8.566,0,0,1-1.137.991Z" transform="translate(233.772 64.2)" fill="#ed1c24" opacity="0.8"/>
    <path id="Path_229" data-name="Path 229" d="M41.451,14.281a2.087,2.087,0,0,1-.134.35,3.457,3.457,0,0,1-.268.524,10.622,10.622,0,0,0,1.538-1.865,8.566,8.566,0,0,1-1.137.991Z" transform="translate(233.772 64.2)" fill="#ed1c24" opacity="0.8"/>
    <path id="Path_230" data-name="Path 230" d="M24.769,43.635a53.945,53.945,0,0,1-4.548,4.6c-2.073,1.457-5.618,3.9-6.822,2.914,0-.991.2-1.457.2-2.389,0-.583.6-.583.535-.991a1.581,1.581,0,0,1-.6-1.049c.6-.466,1.07-.991,1-1.457a6.91,6.91,0,0,1,1-3.438c0-.466,1-1.457,1-1.865.535-.466-.067-1.515.468-2.039,0-.466.468-.932.468-1.457a71.324,71.324,0,0,0,3.746-7.342c.334-.641.6-1.34,1-1.981.334-.233.334-1.34.87-1.457.4-.758.736-1.107.736-1.632,1.137-1.865,1.94-3.03,2.742-4.545.736-1.515,2.007-3.088,2.408-4.6,1.338-2.156,2.475-4.254,3.679-6.235,0,0,.4,0,.334-.291.535-.466.87-1.282,1.672-2.039-.067-.35.736-.758,1.338-.758.334-.758.334-1.107.736-1.515.4,0,.736,0,.736-.35.4,0,.4-.408.87-.408h.87c.4,0,.4-.408.87-.408a4.029,4.029,0,0,0,1.338,1.165,1.7,1.7,0,0,0-.535-1.515l-.4-.758c-.067-.408-.936-.758-.936-1.165A2.417,2.417,0,0,0,38.28-.01c-3.277.35-4.214,1.4-5.886,3.38-.669,1.107-2.007,2.447-2.475,3.263-.736,1.107-1.538,2.331-2.408,3.846a.361.361,0,0,1-.4.35c-.4,1.165-1.2,1.981-1.538,3.088A39.2,39.2,0,0,1,23.5,17.471c-.334.35-.468.932-.87,1.34-.4,1.107-1.2,2.331-1.605,3.438a6.046,6.046,0,0,0-1.2,1.632c-.4.758-.736,1.865-1.137,2.564a9.026,9.026,0,0,0-.535,1.165H18.08s-.2.583-.334.932l-.134.233c-1,2.156-1.873,4.254-2.809,6.352v.991c-1.07.991-1,1.865-1.472,3.438a29.6,29.6,0,0,0-2.007,4.429v1.4a6.508,6.508,0,0,0-.4,2.914c-.468.583.067.991.067,1.457.6,1.457.334,2.447,2.475,3.03,1.137.408,1.605,0,2.742.408-.067-.991,1.07-.408,1-1.4a22.6,22.6,0,0,1,2.609-1.515c0-.466.535-.466,1-.991,0-.991,1.07-.408,1.07-1.4,1.07-.466,1-2.039,2.073-2.506,0-.408,1-.991,1.2-1.4a11.423,11.423,0,0,0,1.4-2.447c-.6.932-1.538,1.515-1.739,2.156Z" transform="translate(61.298 0)" fill="#ed1c24" opacity="0.8"/>
    <path id="Path_231" data-name="Path 231" d="M42.29,15.922c-2.943,3.555-6.287,7.109-8.9,10.023a6.145,6.145,0,0,0-1.07,1.107v.408L31.99,27.4a4.309,4.309,0,0,1-1.07.758c-.334.291-1.472,1.107-2.207.641-.6-.35-.067-2.506-.134-3.088,0-3.03,1.538-6.352,2.675-9.09.87-1.981,1.137-2.8,2.073-4.662.4-.932,1.2-2.855,1.538-3.729a7.415,7.415,0,0,0,3.344.35c-.067-.408-1-.35-1.07-.816L35.2,6.832A5.6,5.6,0,0,0,35.6,5.2a1.3,1.3,0,0,0,.067-.991c-1.472,0-2.007,1.165-2.943,2.214a4.559,4.559,0,0,0-1.4-.233,10.364,10.364,0,0,0-1.338-.117,9.614,9.614,0,0,0-1.4.35c-.936.35-1.605.7-2.007.816-.334.233-1.739,1.282-2.14,1.457a7.728,7.728,0,0,1-1,.466,11.333,11.333,0,0,1-1,.758c-.4.35-1.07.816-1.4,1.165-.468.466-.936.816-1.4,1.34a43.205,43.205,0,0,0-4.214,5.3c-1.4,2.156-2.475,4.254-2.408,6.934a3.032,3.032,0,0,0,.468,1.981c.2.758.4.758,1.137,1.282a6.189,6.189,0,0,0,4.08,1.4c.936,0,1.07-.291,1.806-.7a30.025,30.025,0,0,0,2.675-2.1l-.468-.583a4.4,4.4,0,0,0,1.94-1.515c.669-1.049,1.271-2.214,1.739-3.147-.468,2.1-1.605,5.477.4,7.226a5.768,5.768,0,0,0,2.007,1.282c.736.35,2.609.291,2.809.932,1.07-.291,1.538-1.049,2.274-1.515h.067l1-1.107A.4.4,0,0,1,35,27.868,5.679,5.679,0,0,0,36,26.7a13.236,13.236,0,0,1,1.07-1.865c.334-.641.334-1.457.87-1.981.334-.7,1.271-1.981,1.672-2.68.87-1.282,1.472-2.68,2.408-4.254ZM26.906,18.545c-.736,1.69-2.542,3.263-3.746,4.662a10.876,10.876,0,0,1-5.618,3.555c-.87-.7-.535-2.564,0-4.079-.6-.466.535-2.564,1.472-3.846l.87-1.4a9.43,9.43,0,0,1,1.07-1.515,11.238,11.238,0,0,1,.535-1.165c.2-.291.535-.058,1.07-1.107.2-.291.669-.35.936-.641.2-.291.067-.583.468-.932.334-.291.6-.233.936-.466a21.737,21.737,0,0,1,5.284-3.788,3.708,3.708,0,0,1,1.472-.233,4.043,4.043,0,0,1,.87.058c-.736,1.632-1.94,3.9-2.742,5.477a58.945,58.945,0,0,0-2.742,5.361Z" transform="translate(74.077 20.37)" fill="#ed1c24" opacity="0.8"/>
    <path id="Path_232" data-name="Path 232" d="M36.845,11.627l.334-1.981c-.067-2.039-.067-2.855-1.739-3.9-.2-.466-.4-.641-.535-.991-.535-.583-.535-.991-1.137-.991.6.991,0,3.38-.2,5.244l-.2,2.68a21.522,21.522,0,0,1-1.137,4.137c-.6.991-.669,1.865-1.338,2.855a20.99,20.99,0,0,1-2.475,3.438,15.234,15.234,0,0,0-2.809,2.8c-1.2,1.049-3.879,2.68-4.415,3.2.535-2.68,2.007-5.536,2.609-8.1.669-2.68,2.073-6.293,1.472-8.974A3.2,3.2,0,0,0,22.6,9.529a11.02,11.02,0,0,0-3.813.641v.117c.535,0,2.475.641,2.475,1.165,0,3.613-1.739,10.139-2.542,12.994-.468,1.806-.669,2.506-1.137,3.9a2.764,2.764,0,0,0-.6,1.865c0,1.049.6,1.806,1.338,1.806.6-.583.6-1.049,1.2-1.049.6-.583,1.338-1.632,2.542-1.632,0-.466.468-.466.468-1.049a8.079,8.079,0,0,0,3.879-2.214c.6,0,.6-.466,1.137-.466.6-.991,2.207-1.865,2.742-2.331A22.641,22.641,0,0,0,32.7,20.134l.87-.816A14.33,14.33,0,0,0,35.173,16.4a13.445,13.445,0,0,0,1.07-2.506,7.814,7.814,0,0,0,.87-2.331Z" transform="translate(96.845 18.198)" fill="#ed1c24" opacity="0.8"/>
    <path id="Path_233" data-name="Path 233" d="M44.986,14.918a2.376,2.376,0,0,1,.2-.233,4.455,4.455,0,0,0,.334-.991c-2.408,1.748-6.488,3.9-8.762,3.962A6.19,6.19,0,0,0,37.9,15.909V14.86c-.134-.583.535-1.107.468-1.632a3.606,3.606,0,0,0,.468-2.214c-.134-.583.535-1.69.4-2.8-.067-.466-.736-1.632-.87-2.156C35.89,4.6,31.542,4.08,30.873,4.6c-2.073.408-2.274.932-3.211,2.1-.87.583-.936,1.34-1.4,2.039a4.048,4.048,0,0,0-.334,2.331,19.348,19.348,0,0,0-2.742,3.263l-1.338,2.039a14.887,14.887,0,0,0-2.073,6.993,5.793,5.793,0,0,0,1.07,3.613c.669,1.107,2.007,1.107,2.675,2.156h3.211a11.967,11.967,0,0,0,6.22-3.263l.134-.7c1.2-1.107,1.538-2.564,2.007-4.2.6,0,.535-1.107,1.137-1.69,2.609-.466,4.214-.816,5.953-1.981,0-.641,1.739-1.107,2.675-2.389Zm-15.25,9.79a18.419,18.419,0,0,1-4.548,3.2c-3.478-2.156-1.873-6.643-.535-10.256A49.463,49.463,0,0,1,27.4,13c1.538,2.914,4.214,5.3,6.421,5.885-1.137,1.69-2.408,4.2-4.147,5.885Zm4.883-7.633c-1.94-.466-2.475-1.69-3.277-3.38-.936-1.865-1.472-2.914-.87-4.6A6.034,6.034,0,0,1,32.412,6.7a3.414,3.414,0,0,1,3.077-.291,18.191,18.191,0,0,1-.87,10.605Z" transform="translate(112.717 21.316)" fill="#ed1c24" opacity="0.8"/>
    <path id="Path_234" data-name="Path 234" d="M27.5,14.248c-.4.932-.736,1.69-1.2,2.739-1.07,2.156-1.338,4.487-2.408,6.06-.134,1.806-1.605,3.03-.736,4.545.067.641.87.466,1.605,1.049a5.758,5.758,0,0,1,1.472,0c-.2-2.739,1.338-3.962,1.873-6.235.468-.583.134-.466.6-1.049a9.779,9.779,0,0,1,.535-1.865,3.591,3.591,0,0,0,1.137-1.632c.87-1.165.535-.641,1.672-2.156.334-.641.6-.641.87-1.107.468-.408,1.538-2.039,1.94-2.447a12.2,12.2,0,0,1,2.609-2.914l.87-.932c1.2-1.4,3.612-2.68,4.749-2.039a36.548,36.548,0,0,1-4.214,8.041,4.16,4.16,0,0,0,3.344,0,19.178,19.178,0,0,1,2.809-3.38c.6-1.981,1.137-3.263-.2-4.836C43.085,5.1,40.61,4.225,39.138,4.575A7,7,0,0,0,36.73,5.74,5.511,5.511,0,0,0,35.259,7.78c-1.4,1.69-4.08,6.993-4.883,8.041.87-2.156,3.612-6.993,2.274-9.032a9.031,9.031,0,0,0-4.883-1.806c.669.583,1.739,1.69,1.605,2.214L28.9,8.246a5.119,5.119,0,0,1-.669,3.9,9.725,9.725,0,0,1-.334.991,14.2,14.2,0,0,0,1.4-1.107,17.19,17.19,0,0,1-1.739,2.1Z" transform="translate(130.404 21.753)" fill="#ed1c24" opacity="0.8"/>
    <path id="Path_235" data-name="Path 235" d="M25.309,5.81a8.825,8.825,0,0,1-1.4,1.107,8.127,8.127,0,0,0-.334.991C23.9,7.383,24.573,6.917,25.309,5.81Z" transform="translate(134.334 28.094)" fill="#ed1c24" opacity="0.8"/>
    <path id="Path_236" data-name="Path 236" d="M25.309,5.81a8.825,8.825,0,0,1-1.4,1.107,8.127,8.127,0,0,0-.334.991C23.9,7.383,24.573,6.917,25.309,5.81Z" transform="translate(134.334 28.094)" fill="#ed1c24" opacity="0.8"/>
    <g id="Group_23" data-name="Group 23" transform="translate(-0.044 6.313)" opacity="0.8">
      <path id="Path_237" data-name="Path 237" d="M70.884,16.079,57.306,14.215c-.468-.233-.936-.758-1.605-1.049-.468-.233-.134.641-1.137-.291-.6-.117-.2.641-.8.524-.334-1.457-.134-.816-.669-.816h-.669c0,.758,0,1.282-.669,1.282l-.6.816c-1.271,1.34-1.4,2.739-2.675,4.2l-.134-.758c-.6-.758.134,1.282-.468.758,0,0-.6.524,0,.524L46.6,21.615l-.468.408a1.079,1.079,0,0,1,1,.117c-.669,0-.669,1.457-1.271.816l-3.01,6.41-.6,1.282a9.5,9.5,0,0,0-1.137,2.389,5.77,5.77,0,0,0-1.271,2.331l-.334.932c3.813-.932,8.762-3.38,9.565-4.6.6,0,0,0-.2.816.8-.816.8-1.457,1.472-1.457l-.134,1.165a3.851,3.851,0,0,0,1.605-2.331c0,.233.2-.117.6.408l.334-1.457c1.137,0,2.876-1.981,3.211-4.312h-.334l-.134-.641a1.813,1.813,0,0,1,1.137.641c.134,1.049,1.137,1.806,1.472,2.855a1.646,1.646,0,0,0,.468,1.457,38.854,38.854,0,0,1-4.749,8.624l-.334,1.34a14.963,14.963,0,0,0-2.675,3.788,2.927,2.927,0,0,0-.936,1.865l-.334-.641c1-2.389,2.207-4.487,2.675-6.585a15.283,15.283,0,0,0,1.4-6.934c-2.408,3.438-7.96,6.526-14.983,7.867a6.781,6.781,0,0,1-1.137,1.865,7.26,7.26,0,0,1-1.4,3.555l-.6.641c-.6,1.34-3.211,8.915-4.013,9.556a2.213,2.213,0,0,1-.6,1.457h-.6s0,1.34-.669,1.34v.641a112.909,112.909,0,0,1-4.481,11.654l-.6-.117a.936.936,0,0,1,0-.641v-.758c0-.758-.134-1.34.468-1.981,0,0,.8-.758.2-1.457l-.134-2.739A17,17,0,0,0,26.672,55.7c0-.524.8,0,.669-.524-.134-.758,1.137-.758,1.137-2.1V52.44c0-1.457,3.879-9.556,3.813-11.654,1.137,0,.6-2.1,1.94-2.622,0-.117,0-.233.134-.291-1.4-.408-2.876-.816-3.879-.524-.6-.641,0-.641-.468-1.34-.134.758-.936.758-.8,0-.669.758-1.137,0-2.408-.758a6.894,6.894,0,0,1-4.281-5.011c.6.758,1.137,1.34,1.806,1.34-.2.816.468,1.165.936,1.457l1,.524,1.94.932c.6.758,1.137.758,2.408.758.468.641,1,.233,1.605.117a1.2,1.2,0,0,0-.468.641,6,6,0,0,0,3.01.524c.334-1.165.8-1.865,1.137-3.263v-.641h.669c0-.816.669-.816.669-.816v-.641a4.652,4.652,0,0,0,.6-2.739C40.518,23.6,44.263,15.205,48.21,10.485a24.28,24.28,0,0,0-3.077-.758c-2.542-.758-6.087-.758-9.3-1.457H33.16a15.821,15.821,0,0,0-4.816.408h-.669c-.669,0-1.271,0-1.271-.758l-.6.758a1.514,1.514,0,0,1-1.94-.408,8.959,8.959,0,0,1-3.344.758,14.426,14.426,0,0,0-6.689,2.1V10.6c-.134,1.282-1.472,1.282-2.542,1.865-.134-.524.2-.641.468-.641-1.137,0-1.739,1.34-2.274,1.34q0,.524-.669.524c-.334.408-1.271.816-1.873,1.457.6.758,1.137-.408,1.271-.524-.134.641-1.271,1.282-1.739,1.865.468.524-.669.932-1,1.806L5,19.575c-.134,1.282-.8,5.769.6,7.983.936,2.855,3.545,4.72,6.087,6.177l4.749,2.506a6.86,6.86,0,0,1-3.545-.816c-.936-.117-1.605-.233-2.073-.932a7.373,7.373,0,0,1-4.147-1.457C4.466,32.1.787,29.074.452,26.218a3.33,3.33,0,0,1-.134-3.263L.185,22.2c.669-.117,0,0,0-.758,0-1.34.6-2.214,1-4.2A26.659,26.659,0,0,1,4.4,12.408c1.472-1.806,6.889-4.2,8.762-4.72.669,0,1.873,0,1.873-.758a37.773,37.773,0,0,1,14.18-1.806A65.383,65.383,0,0,1,45.4,6.931c2.274.758,3.813,1.165,4.348,1.282.669-.641,1.806-2.331,3.01-2.506a19.051,19.051,0,0,1,5.552-3.38c.669.233.6.816.669.233,0,0,.334.117-.2-.641.2.117.669.408,1,.291l.134-.524c1.137-.758,7.692-.758,10.033-.291,3.545.932,5.752,1.34,6.555,5.244l.334.408c.669,5.885-3.679,6.7-6.354,8.274-1-.233-2.274,0,.134.641ZM69.413,13.69c3.01,0,5.552-1.34,6.555-3.962a6.937,6.937,0,0,0-.468-4.2c-.6-.758-1.137-1.282-1.739-1.34a19.55,19.55,0,0,0-3.879-.233,37.248,37.248,0,0,0-7.96,1.806C59.714,6.406,57.105,8.62,56.5,8.5a1.392,1.392,0,0,0-.669,1.282c-.669-.233-1.137-.291-1.271.291a72.049,72.049,0,0,0,12.642,3.03s.334.816.468.233l1.739.408Z" transform="translate(0.044 -1.075)" fill="#ed1c24"/>
    </g>
    <g id="Group_24" data-name="Group 24" transform="translate(0.892 0.689)" opacity="0.62">
      <path id="Path_238" data-name="Path 238" d="M13.265,52.9c-2.14-.583-1.873-1.515-2.475-3.03,0-.466-.535-.932-.067-1.457a5.591,5.591,0,0,1,.468-2.914V44.1a26.3,26.3,0,0,1,1.94-4.429c.468-1.515.4-2.447,1.472-3.438v-.991c1-2.1,1.806-4.2,2.809-6.352l.134-.233a2.273,2.273,0,0,1,.334-.932h.067a9.027,9.027,0,0,1,.535-1.165c.4-.7.736-1.806,1.137-2.564a13.487,13.487,0,0,1,1.2-1.632c.4-1.107,1.2-2.331,1.605-3.438.4-.408.535-.991.87-1.34.936-1.282,1.271-2.389,2.073-3.555.334-1.107,1.137-1.865,1.538-3.088a.361.361,0,0,0,.4-.35,42.817,42.817,0,0,1,2.408-3.846c.468-.816,1.739-2.156,2.475-3.263C33.866,1.509,34.8.46,38.08.11a2.032,2.032,0,0,1,1.271.641c0,.408.87.758.936,1.165l.4.758a1.754,1.754,0,0,1,.535,1.515,4.512,4.512,0,0,1-1.271-1.165c-.468,0-.468.408-.87.408h-.87c-.468,0-.468.408-.87.408,0,.35-.4.35-.736.35-.468.408-.468.758-.736,1.515-.535,0-1.4.408-1.271.758A20.681,20.681,0,0,0,32.93,8.5c.067.291-.334.291-.334.291-1.2,1.981-2.341,4.079-3.679,6.235-.4,1.515-1.605,3.088-2.408,4.6-.87,1.515-1.605,2.68-2.742,4.545,0,.466-.4.816-.736,1.632-.535.117-.535,1.282-.87,1.457-.4.641-.669,1.34-1,1.981a71.324,71.324,0,0,1-3.746,7.342c0,.583-.468.991-.468,1.457-.535.466.067,1.515-.468,2.039,0,.408-1,1.4-1,1.865a6.91,6.91,0,0,0-1,3.438c.067.466-.4.991-1,1.457a1.581,1.581,0,0,0,.6,1.049c.067.408-.535.408-.535.991,0,.932-.2,1.4-.2,2.389,1.2.991,4.749-1.457,6.822-2.914a53.946,53.946,0,0,0,4.548-4.6c.2-.641,1.137-1.282,1.739-2.156a11.424,11.424,0,0,1-1.4,2.447c-.2.408-1.2.991-1.2,1.4-1.07.466-1,2.039-2.073,2.506,0,.991-1.07.408-1.07,1.4-.468.466-1,.466-1,.991-1.07.466-1.605.991-2.609,1.515.067.991-1.07.408-1,1.4-1.137-.408-1.605,0-2.742-.408Z" transform="translate(59.269 -0.11)" fill="#f7931e" opacity="0.8"/>
      <path id="Path_239" data-name="Path 239" d="M28.619,29.921a5.768,5.768,0,0,1-2.007-1.282c-2.007-1.748-.87-5.128-.4-7.226-.468.932-1.07,2.1-1.739,3.147a3.706,3.706,0,0,1-1.94,1.515l.468.583c-.334.35-2.274,1.806-2.675,2.1-.736.408-.936.7-1.806.7a6.316,6.316,0,0,1-4.08-1.4c-.736-.466-.936-.466-1.137-1.282a3.032,3.032,0,0,1-.468-1.981c-.067-2.68,1-4.778,2.408-6.934a39.208,39.208,0,0,1,4.214-5.3c.468-.466.936-.816,1.4-1.34.334-.35,1-.816,1.4-1.165a11.332,11.332,0,0,0,1-.758,7.728,7.728,0,0,1,1-.466c.4-.233,1.806-1.282,2.14-1.457.4-.117,1.07-.466,2.007-.816a9.613,9.613,0,0,1,1.4-.35,8.466,8.466,0,0,1,1.271.117,3.3,3.3,0,0,1,1.4.233c.936-1.049,1.472-2.214,2.943-2.214.134.408.067.466-.067.991a14.76,14.76,0,0,1-.4,1.632l1.94.932c.067.466,1,.408,1.07.816a7.323,7.323,0,0,1-3.344-.35c-.334.816-1.137,2.8-1.538,3.729-.936,1.865-1.2,2.739-2.073,4.662-1.137,2.739-2.675,6.06-2.675,9.09.067.583-.468,2.739.134,3.088.736.466,1.94-.35,2.207-.641a6.663,6.663,0,0,0,1.07-.758h.2l.067-.35a6.145,6.145,0,0,1,1.07-1.107c2.609-2.855,5.953-6.41,8.9-10.023-.936,1.632-1.538,3.03-2.341,4.254a29.331,29.331,0,0,0-1.672,2.68c-.535.466-.535,1.34-.87,1.981a17.673,17.673,0,0,0-1.07,1.865,4.175,4.175,0,0,1-1,1.165c-.067.058-.067.117-.067.233l-1,1.049H33.9c-.736.583-1.2,1.34-2.274,1.632-.2-.641-2.073-.583-2.809-.932Zm-5.953-6.643c1.2-1.4,3.01-3.03,3.746-4.662.87-1.806,1.739-3.613,2.742-5.361.87-1.515,2.007-3.846,2.742-5.477a4.043,4.043,0,0,0-.87-.058,3.708,3.708,0,0,0-1.472.233,20.286,20.286,0,0,0-5.284,3.788c-.334.291-.6.233-.936.466-.4.35-.2.641-.468.932-.2.291-.669.35-.936.641-.535,1.049-.87.816-1.07,1.107s-.334.816-.535,1.165a13.012,13.012,0,0,0-1.07,1.515l-.87,1.4c-.936,1.282-2.073,3.38-1.472,3.846-.535,1.457-.87,3.38,0,4.079a11.153,11.153,0,0,0,5.618-3.555Z" transform="translate(72.274 20.309)" fill="#f7931e" opacity="0.8"/>
      <path id="Path_240" data-name="Path 240" d="M16.978,30.345a2.68,2.68,0,0,1,.6-1.865c.468-1.4.669-2.1,1.137-3.9.736-2.855,2.542-9.382,2.542-12.994,0-.583-1.94-1.165-2.542-1.165V10.3A12.153,12.153,0,0,1,22.6,9.659c1.472.233,2.408.816,2.675,1.515.6,2.68-.736,6.293-1.472,8.974-.6,2.564-2.073,5.477-2.609,8.1.535-.583,3.211-2.156,4.415-3.2a15.234,15.234,0,0,1,2.809-2.8,22.757,22.757,0,0,0,2.475-3.438c.6-.991.669-1.865,1.271-2.855A21.523,21.523,0,0,0,33.3,11.815l.2-2.68c.2-1.865.87-4.254.2-5.244.6,0,.6.408,1.137.991.134.35.334.466.535.991,1.672,1.049,1.672,1.865,1.739,3.9l-.334,1.981a5.5,5.5,0,0,1-.87,2.331,11.97,11.97,0,0,1-1.07,2.506,14.331,14.331,0,0,1-1.605,2.914l-.87.816a15.558,15.558,0,0,1-2.408,3.147A10.767,10.767,0,0,0,27.211,25.8c-.535,0-.535.466-1.137.466a8.406,8.406,0,0,1-3.879,2.214c0,.583-.468.583-.468,1.049-1.2,0-1.94,1.049-2.542,1.632-.6,0-.6.466-1.2,1.049-.669,0-1.271-.758-1.271-1.806Z" transform="translate(94.417 18.136)" fill="#f7931e" opacity="0.8"/>
      <path id="Path_241" data-name="Path 241" d="M23.326,29.236c-.669-1.049-2.007-1.049-2.675-2.156a5.909,5.909,0,0,1-1.07-3.613,14.887,14.887,0,0,1,2.073-6.993l1.271-2.039a17.3,17.3,0,0,1,2.742-3.263A4.128,4.128,0,0,1,26,8.841c.468-.7.535-1.457,1.4-2.039.936-1.165,1.137-1.69,3.211-2.1.669-.466,5.083,0,7.491,1.457a17.064,17.064,0,0,0,.87,2.156c.134,1.107-.535,2.214-.4,2.8a3.606,3.606,0,0,1-.468,2.214c.067.466-.6,1.049-.535,1.632v1.049a5.356,5.356,0,0,1-1.07,1.748C39.245,17.7,45,14.319,46.6,12.629c-.87,1.34-1.605,1.748-1.94,2.389-.936,1.282-2.675,1.748-2.675,2.389-1.739,1.107-3.344,1.457-5.953,1.981-.6.583-.535,1.69-1.137,1.69-.468,1.632-.736,3.088-2.007,4.2l-.134.7a11.331,11.331,0,0,1-6.22,3.263H23.326Zm6.154-4.429c1.739-1.69,3.01-4.2,4.147-5.885-2.207-.583-4.883-2.914-6.421-5.885-1.137,1.865-2.14,3.38-2.742,4.662-1.271,3.613-2.943,8.1.535,10.256a21.28,21.28,0,0,0,4.548-3.2ZM35.232,6.569a3.414,3.414,0,0,0-3.077.291,6.034,6.034,0,0,0-1.94,2.389c-.6,1.69-.067,2.739.87,4.6.87,1.69,1.4,2.855,3.277,3.38a19.409,19.409,0,0,0,.87-10.605Z" transform="translate(110.744 21.226)" fill="#f7931e" opacity="0.8"/>
      <path id="Path_242" data-name="Path 242" d="M22.942,27.671c-.87-1.515.6-2.739.736-4.545,1.07-1.632,1.271-3.9,2.408-6.06a37.269,37.269,0,0,0,1.94-4.778,5.119,5.119,0,0,0,.669-3.9l.468-1.049c.134-.583-.936-1.69-1.605-2.214A8.841,8.841,0,0,1,32.44,6.927c1.271,2.039-1.472,6.876-2.274,9.032.87-1.049,3.545-6.352,4.883-8.041A4.855,4.855,0,0,1,36.52,5.878a6.709,6.709,0,0,1,2.341-1.165c1.472-.35,3.879.583,5.685,1.515,1.4,1.515.87,2.855.2,4.836a17.254,17.254,0,0,0-2.809,3.38,4.153,4.153,0,0,1-3.344,0A36.548,36.548,0,0,0,42.808,6.4c-1.137-.641-3.545.641-4.749,2.039l-.87.932a13.468,13.468,0,0,0-2.609,2.914c-.4.408-1.472,2.039-1.94,2.447-.2.466-.535.466-.87,1.107-1.137,1.515-.87.991-1.672,2.156a4.659,4.659,0,0,1-1.137,1.632,9.779,9.779,0,0,0-.535,1.865c-.468.583-.134.466-.6,1.049-.535,2.214-2.073,3.5-1.873,6.235a5.758,5.758,0,0,0-1.472,0c-.736-.583-1.538-.408-1.605-1.049Z" transform="translate(128.317 21.743)" fill="#f7931e" opacity="0.8"/>
      <path id="Path_243" data-name="Path 243" d="M79.884,18.992,68.847,17.71c-.4-.117-.736-.466-1.271-.7-.4-.117-.134.408-1-.233-.4-.058-.134.408-.6.35-.2-.991-.067-.583-.535-.583H64.9c0,.466-.067.816-.6.816l-.468.583c-1,.932-1.137,1.806-2.14,2.8v-.466c-.535-.466,0,.816-.468.466,0,0-.468.35,0,.35l-1,1.457-.4.291a1.123,1.123,0,0,1,.736.058c-.535,0-.535.991-1,.583l-2.475,4.254-.468.816-.936,1.632c-.4.408-1,1.107-1,1.515a2.947,2.947,0,0,1-.334.641c3.077-.641,7.023-2.156,7.759-3.088.468,0,0,0-.134.583.6-.583.6-.991,1.2-.991V29.6a3.266,3.266,0,0,0,1.2-1.515c0,.117.134-.058.468.291l.2-.991c1,0,2.408-1.34,2.609-2.855h-.2v-.408a1.7,1.7,0,0,1,.87.408c.067.7.936,1.165,1.2,1.865a.951.951,0,0,0,.334.991,29.352,29.352,0,0,1-3.813,5.711l-.2.932a8.617,8.617,0,0,0-2.14,2.506,1.736,1.736,0,0,0-.736,1.282l-.334-.408a31.919,31.919,0,0,0,2.207-4.429,9.078,9.078,0,0,0,1.07-4.6C63.9,30.7,59.416,32.685,53.731,33.618a3.683,3.683,0,0,1-.936,1.282,4.254,4.254,0,0,1-1.07,2.389l-.535.408c-.468.932-2.609,5.944-3.211,6.352a1.538,1.538,0,0,1-.468.991h-.468s0,.932-.535.932v.408c-1,2.389-2.675,6-3.679,7.75H42.36V53.2a1.487,1.487,0,0,1,.4-1.34.673.673,0,0,0,.134-.991V49.059a11.655,11.655,0,0,0,1.2-3.613c0-.35.6,0,.535-.35-.067-.466.936-.466.936-1.4V43.29c0-.991,3.211-6.352,3.144-7.75.936,0,.468-1.4,1.538-1.748,0-.058.067-.117.067-.233a6.836,6.836,0,0,0-3.144-.35c-.468-.408,0-.408-.4-.932-.067.466-.669.466-.6,0-.535.466-1,0-2.007-.466a4.9,4.9,0,0,1-3.478-3.38c.468.466.936.932,1.472.932-.134.583.468.758.736.991l.87.35,1.605.641c.468.466.936.466,2.007.466.334.408.87.117,1.271.058a.546.546,0,0,0-.4.408,5.353,5.353,0,0,0,2.408.35,11.088,11.088,0,0,0,1-2.156v-.408h.535a.54.54,0,0,1,.535-.583v-.408a2.9,2.9,0,0,0,.535-1.806c2.073-3.2,5.217-8.8,8.361-11.946a12.13,12.13,0,0,0-2.542-.466c-2.073-.466-4.883-.466-7.491-.991H49.45a15.754,15.754,0,0,0-4.013.291H44.9c-.535,0-1,0-1-.466l-.535.466a1.234,1.234,0,0,1-1.538-.291,9.176,9.176,0,0,1-2.742.466,13.441,13.441,0,0,0-5.351,1.4v-.35c-.134.816-1.2.816-2.073,1.282-.067-.35.134-.408.334-.408-.936,0-1.4.932-1.873.932q0,.35-.535.35s-1,.583-1.538.991c.468.466,1-.291,1.07-.35-.067.408-1,.816-1.472,1.282.4.35-.535.641-.87,1.165l-.334.816c-.067.816-.669,3.846.468,5.3.736,1.865,2.943,3.147,4.883,4.137l3.813,1.69a7.571,7.571,0,0,1-2.943-.583c-.669-.058-1.271-.117-1.605-.641a7.07,7.07,0,0,1-3.344-.991c-1.739-.641-4.816-2.68-5.083-4.545a1.83,1.83,0,0,1-.067-2.156v-.466c.468-.058-.067,0-.067-.466-.067-.932.4-1.457.736-2.8a17.15,17.15,0,0,1,2.609-3.2c1.2-1.165,5.685-2.8,7.157-3.147.535,0,1.538,0,1.538-.466a35.271,35.271,0,0,1,11.5-1.165,65.162,65.162,0,0,1,13.177,1.165c1.806.466,3.077.758,3.545.816.535-.408,1.472-1.515,2.475-1.69a15.312,15.312,0,0,1,4.481-2.214c.6.117.468.583.6.117,0,0,.2.058-.2-.408a1.643,1.643,0,0,0,.87.233V9.61c1.07-.466,6.354-.466,8.227-.233,2.943.641,4.749.932,5.351,3.5l.334.291c.535,3.9-3.01,4.487-5.15,5.536-.87-.117-1.94,0,.067.408ZM78.613,17.36c2.475,0,4.415-.932,5.351-2.68a4.1,4.1,0,0,0-.4-2.8,3.9,3.9,0,0,0-1.472-.932,24.918,24.918,0,0,0-3.144-.117A40.005,40.005,0,0,0,72.526,12c-1.873.408-3.879,1.865-4.481,1.806a.9.9,0,0,0-.535.816c-.535-.117-.936-.233-1,.233a74.149,74.149,0,0,0,10.3,2.039s.334.583.4.117l1.4.291Z" transform="translate(125.888 43.883)" fill="#f7931e" opacity="0.8"/>
      <path id="Path_244" data-name="Path 244" d="M42.572,36.54c-2.007-1.632-1.94-5.536,0-9.5-1.4,1.515-2.007,2.447-2.943,3.613,0,.583-.4.233-1,1.282l-.6.466c-.6.641-2.007.641-2.609,1.69-1.94,1.515-5.886.466-6.354-1.049-.468-4.254,1.471-6.41,2.341-9.382,1.2-1.632,1.605-3.2,2.809-5.3,1.07-1.806,1.806-3.38,1.605-5.128a2.177,2.177,0,0,0-.468-1.049c1.471-.291,4.147.7,4.08,1.865-.535,3.729-2.475,5.711-3.679,8.974a3.8,3.8,0,0,0-1.4,2.447C33.141,27.1,31.6,30.6,31.6,32.577c2.007,0,3.478-1.34,5.418-1.865.535-1.69,2.408-1.69,4.214-3.846a43.715,43.715,0,0,1,3.144-4.895c.6-1.049,1-2.1,1.4-2.739A19.008,19.008,0,0,0,47.455,15.8c.4-.932.6-1.34.736-1.748.2-.641.334-.932.4-1.165.669,0,3.211.7,3.277,1.34a3.481,3.481,0,0,1-.334,1.806l-.334.583-1,1.748c-.334.408-.936,1.049-.936,1.457-.6.7-.535,1.748-1.137,2.214-.669.991-1.94,2.739-1.873,3.788-.6.408,0,1.107-.6,1.107v1.049a17.586,17.586,0,0,0-1.137,3.613c-.334,1.748-.6,5.011,1.472,6a7.23,7.23,0,0,1-3.612-1.107Z" transform="translate(164.27 57.917)" fill="#f7931e" opacity="0.8"/>
      <path id="Path_245" data-name="Path 245" d="M32.522,33.378a6.023,6.023,0,0,1,.736-6.177h0c-.134.408-.4.758-.468,1.107a4.445,4.445,0,0,0,.067,3.9c1.472,2.214,5.618,4.429,8.294,2.739,1.672-1.107,2.274-4.137,1.4-6.876-.468-2.8-3.612-6.177-3.344-9.44-.334-.466,0-2.1.2-3.03A3.641,3.641,0,0,1,41.418,13.8c-.134-.641.87-.991,1.873-1.4a7.412,7.412,0,0,1,2.943-.117,5.355,5.355,0,0,1,2.073.233c1.94.583,2.475.816,3.344,2.156a2.68,2.68,0,0,1,.535,2.214,3.368,3.368,0,0,1-1.672,2.039l-.134-.117c.4-1.282-1.472-5.361-3.746-6.235-2.073.641-2.943,1.34-3.545,2.447l-.134.816c-.334.932,0,2.855.736,4.545l.6,1.457c1,2.855,2.274,5.885,2.274,8.741l-.134,1.165a2.824,2.824,0,0,1-.6,1.515l-.535.466c-.6.641-1.137,1.748-1.672,1.748a1.707,1.707,0,0,1-1.137.466c-.6,0-2.408.583-3.612.583-.4.583-1.672,0-2.274,0-.535,0-.736-.583-1.739,0-.936-1.69-2.14-2.156-2.207-3.263Z" transform="translate(181.343 58.165)" fill="#f7931e" opacity="0.8"/>
      <path id="Path_246" data-name="Path 246" d="M36.512,44.6c-1.137-1.049-1.873-2.1-1.605-3.438l.334-1.282c-.067-1.632,1.07-2.68,1-3.729a26.2,26.2,0,0,0,2.475-5.477,36.953,36.953,0,0,0,1.739-4.487c.468-1.632.468-2.1.736-3.147.535,0,.6-.408,1.137.058.6,0,1.472.991,2.007,1.457a2.825,2.825,0,0,1,0,2.68c-.6,1.515-1.94,3.147-2.475,5.244l-1.4,2.68c-.535.466-.334.991-.87,1.515.067.466-.535,1.515-.535,2.1-.468,1.049-1.137,1.515-1.07,2.1.067.466-.468.466-1.07,1.049a16.557,16.557,0,0,0,.2,2.564,11.72,11.72,0,0,0,4.95-1.515c2.809-1.632,8.361-8.041,10.568-10.605-.535,1.515-4.415,6.41-4.883,7.459v.466l-.6.583c-.468,1.049-2.007,2.331-2.007,3.38-1.672,2.1-4.08,1.865-5.819,2.039a7.809,7.809,0,0,1-2.943-1.748ZM47.348,10.1c.669,1.165,3.144,1.69,2.007,3.438,0,.583-.535,1.107-1.137,1.69,0,.583-.468.641-.067.641-.535.058-1.2,1.049-2.475.466-.535,0-1.2-.466-1.739.583-.736-3.38,1-6.235,3.478-6.759Z" transform="translate(197.62 48.113)" fill="#f7931e" opacity="0.8"/>
      <path id="Path_247" data-name="Path 247" d="M40.786,36.726c-.669-1.049-2.007-1.049-2.675-2.156a5.909,5.909,0,0,1-1.07-3.613,14.887,14.887,0,0,1,2.073-6.993l1.271-2.039a17.3,17.3,0,0,1,2.742-3.263,4.128,4.128,0,0,1,.334-2.331c.468-.7.535-1.457,1.4-2.039.936-1.165,1.137-1.69,3.211-2.1.669-.466,5.083,0,7.491,1.457a17.059,17.059,0,0,0,.87,2.156c.134,1.107-.535,2.214-.4,2.8a3.606,3.606,0,0,1-.468,2.214c.067.466-.6,1.049-.535,1.632V23.5a5.356,5.356,0,0,1-1.07,1.748c2.742-.058,8.495-3.438,10.1-5.128-.87,1.34-1.605,1.748-1.94,2.389-.936,1.282-2.675,1.748-2.675,2.389C57.708,26,56.1,26.354,53.494,26.878c-.6.583-.535,1.69-1.137,1.69-.468,1.632-.736,3.088-2.007,4.2l-.134.7A11.331,11.331,0,0,1,44,36.726H40.786ZM46.939,32.3c1.739-1.69,3.01-4.2,4.147-5.885-2.207-.583-4.883-2.914-6.421-5.885-1.137,1.865-2.14,3.38-2.742,4.662-1.271,3.613-2.943,8.1.535,10.256a21.279,21.279,0,0,0,4.548-3.2Zm5.752-18.239a3.414,3.414,0,0,0-3.077.291,6.034,6.034,0,0,0-1.94,2.389c-.6,1.69-.067,2.739.87,4.6.87,1.69,1.4,2.855,3.277,3.38a19.409,19.409,0,0,0,.87-10.605Z" transform="translate(210.068 57.381)" fill="#f7931e" opacity="0.8"/>
      <path id="Path_248" data-name="Path 248" d="M55.512,39.671c-1.2,0-3.344-3.9-3.344-5.536,0-3.263,1.538-5.711,2.809-8.158,1.2-1.981,2.274-3.9,3.545-6.41a29.74,29.74,0,0,0,1.472-3.846,1.27,1.27,0,0,0-.535-1.4,6.283,6.283,0,0,0-2.943,2.331c-.669.466-1.2,1.457-1.873,1.457-.6.466-.6,1.515-1.739,1.515-.669,1.632-1.538,1.632-2.14,3.147l-1.2,1.165c-1.472,2.447-3.746,4.778-5.418,8.158-.4.816-1.472,1.282-1.672,2.214-.535.117-2.007.233-2.007.758-.669-1.34,0-2.214,0-3.38.669-1.282,2.207-5.711,2.809-7.342a38.362,38.362,0,0,1,1.739-4.2,12.9,12.9,0,0,1,1.137-2.506c.535-2.68,1.2-4.662-.87-5.3,1-.058,1.806.117,2.408.117a5.232,5.232,0,0,1,2.007.758c.736.35.936.583,1.07,2.214-.535,1.049-.535,2.564-1.137,3.147,0,.466-.6,1.049-.87,1.69-.4.816-1.472,3.613-3.277,6.876,3.746-4.6,8.026-10.955,11.036-13.053a6.967,6.967,0,0,1,2.809-1.69l1.271-.117a3.387,3.387,0,0,1,2.943,1.34c-.067,1.282.535,1.865-.067,3.438a12.625,12.625,0,0,1-.87,2.156c-.134.291-.6.641-.736.932-.134.408.134.35,0,.816l-.936,1.806a19.546,19.546,0,0,1-1.07,1.981c-.067.291-.2-.408-.468,0a22.988,22.988,0,0,1-.87,2.214,8.624,8.624,0,0,0-.468.758,16.586,16.586,0,0,0-2.341,4.953c-.87,2.156-1.4,5.827.535,6.876,1.806.117,7.692-1.69,9.5-2.739C64.81,38.1,62.6,39.322,62,39.963a15.791,15.791,0,0,1-2.742.7c-1.4.117-2.14-.408-3.746-1.049Z" transform="translate(227.848 58.632)" fill="#f7931e" opacity="0.8"/>
      <path id="Path_249" data-name="Path 249" d="M71.024,16.229,57.446,14.365c-.468-.233-.936-.758-1.605-1.049-.468-.233-.134.641-1.137-.291-.6-.117-.2.641-.8.524-.334-1.457-.134-.816-.669-.816h-.669c0,.758,0,1.282-.669,1.282l-.6.816c-1.271,1.34-1.4,2.739-2.675,4.2l-.134-.758c-.6-.758.134,1.282-.468.758,0,0-.6.524,0,.524l-1.271,2.214-.468.408a1.079,1.079,0,0,1,1,.117c-.669,0-.669,1.457-1.271.816L43,29.515,42.4,30.8a9.5,9.5,0,0,0-1.137,2.389,5.77,5.77,0,0,0-1.271,2.331l-.334.932c3.813-.932,8.762-3.38,9.565-4.6.6,0,0,0-.2.816.8-.816.8-1.457,1.472-1.457l-.134,1.165a3.851,3.851,0,0,0,1.605-2.331c0,.233.2-.117.6.408L52.9,28.99c1.137,0,2.876-1.981,3.211-4.312h-.334l-.134-.641a1.813,1.813,0,0,1,1.137.641c.134,1.049,1.137,1.806,1.472,2.855a1.646,1.646,0,0,0,.468,1.457,38.854,38.854,0,0,1-4.749,8.624l-.334,1.34a14.963,14.963,0,0,0-2.675,3.788,2.927,2.927,0,0,0-.936,1.865l-.334-.641c1-2.389,2.207-4.487,2.675-6.585a15.283,15.283,0,0,0,1.4-6.934c-2.408,3.438-7.96,6.526-14.983,7.867a6.781,6.781,0,0,1-1.137,1.865,7.26,7.26,0,0,1-1.4,3.555l-.6.641c-.6,1.34-3.211,8.915-4.013,9.556a2.213,2.213,0,0,1-.6,1.457h-.6s0,1.34-.669,1.34v.641a112.909,112.909,0,0,1-4.481,11.654l-.6-.117a.936.936,0,0,1,0-.641v-.758c0-.758-.134-1.34.468-1.981,0,0,.8-.758.2-1.457l-.134-2.739a17,17,0,0,0,1.605-5.477c0-.524.8,0,.669-.524-.134-.758,1.137-.758,1.137-2.1V52.59c0-1.457,3.879-9.556,3.813-11.654,1.137,0,.6-2.1,1.94-2.622,0-.117,0-.233.134-.291-1.4-.408-2.876-.816-3.879-.524-.6-.641,0-.641-.468-1.34-.134.758-.936.758-.8,0-.669.758-1.137,0-2.408-.758a6.894,6.894,0,0,1-4.281-5.011c.6.758,1.137,1.34,1.806,1.34-.2.816.468,1.165.936,1.457l1,.524,1.94.932c.6.758,1.137.758,2.408.758.468.641,1,.233,1.605.117a1.2,1.2,0,0,0-.468.641,6,6,0,0,0,3.01.524c.334-1.165.8-1.865,1.137-3.263v-.641h.669c0-.816.669-.816.669-.816v-.641a4.652,4.652,0,0,0,.6-2.739C40.658,23.746,44.4,15.355,48.35,10.635a24.28,24.28,0,0,0-3.077-.758c-2.542-.758-6.087-.758-9.3-1.457H33.3a15.821,15.821,0,0,0-4.816.408h-.669c-.669,0-1.271,0-1.271-.758l-.6.758A1.514,1.514,0,0,1,24,8.421a8.959,8.959,0,0,1-3.344.758,14.426,14.426,0,0,0-6.689,2.1v-.524c-.134,1.282-1.472,1.282-2.542,1.865-.134-.524.2-.641.468-.641-1.137,0-1.739,1.34-2.274,1.34q0,.524-.669.524c-.334.408-1.271.816-1.873,1.457.6.758,1.137-.408,1.271-.524-.134.641-1.271,1.282-1.739,1.865.468.524-.669.932-1,1.806l-.468,1.282c-.134,1.282-.8,5.769.6,7.983.936,2.855,3.545,4.72,6.087,6.177l4.749,2.506a6.86,6.86,0,0,1-3.545-.816c-.936-.117-1.605-.233-2.073-.932a7.373,7.373,0,0,1-4.147-1.457C4.606,32.254.927,29.224.592,26.368a3.33,3.33,0,0,1-.134-3.263l-.134-.758c.669-.117,0,0,0-.758,0-1.34.6-2.214,1-4.2a26.659,26.659,0,0,1,3.211-4.836c1.472-1.806,6.889-4.2,8.762-4.72.669,0,1.873,0,1.873-.758a37.773,37.773,0,0,1,14.18-1.806A65.383,65.383,0,0,1,45.54,7.081c2.274.758,3.813,1.165,4.348,1.282.669-.641,1.806-2.331,3.01-2.506a19.051,19.051,0,0,1,5.552-3.38c.669.233.6.816.669.233,0,0,.334.117-.2-.641.2.117.669.408,1,.291l.134-.524c1.137-.758,7.692-.758,10.033-.291,3.545.932,5.752,1.34,6.555,5.244l.334.408c.669,5.885-3.679,6.7-6.354,8.274-1-.233-2.274,0,.134.641ZM69.553,13.84c3.01,0,5.552-1.34,6.555-3.962a6.937,6.937,0,0,0-.468-4.2c-.6-.758-1.137-1.282-1.739-1.34a19.55,19.55,0,0,0-3.879-.233,37.248,37.248,0,0,0-7.96,1.806c-2.207.641-4.816,2.855-5.418,2.739a1.392,1.392,0,0,0-.669,1.282c-.669-.233-1.137-.291-1.271.291a72.049,72.049,0,0,0,12.642,3.03s.334.816.468.233l1.739.408Z" transform="translate(-0.096 5.273)" fill="#f7931e"/>
    </g>
  </g>
</svg>
